<svg width="20" height="20" viewBox="0 0 20 20" fill="none" xmlns="http://www.w3.org/2000/svg">
<g opacity="0.4">
<path d="M16.825 11.7167L15.8833 10.15C15.675 9.80834 15.4917 9.15001 15.4917 8.75001V7.19168C15.4917 4.16668 13.0333 1.70834 10.0167 1.70834C6.99166 1.71668 4.53333 4.16668 4.53333 7.19168V8.74168C4.53333 9.14168 4.35 9.80001 4.15 10.1417L3.20833 11.7083C2.85 12.3167 2.76666 13.0083 2.99166 13.6083C3.21666 14.2167 3.725 14.7 4.39166 14.9167C5.29166 15.2167 6.2 15.4333 7.125 15.5917C7.21666 15.6083 7.30833 15.6167 7.4 15.6333C7.51666 15.65 7.64166 15.6667 7.76666 15.6833C7.98333 15.7167 8.2 15.7417 8.425 15.7583C8.95 15.8083 9.48333 15.8333 10.0167 15.8333C10.5417 15.8333 11.0667 15.8083 11.5833 15.7583C11.775 15.7417 11.9667 15.725 12.15 15.7C12.3 15.6833 12.45 15.6667 12.6 15.6417C12.6917 15.6333 12.7833 15.6167 12.875 15.6C13.8083 15.45 14.7333 15.2167 15.6333 14.9167C16.275 14.7 16.7667 14.2167 17 13.6C17.2333 12.975 17.1667 12.2917 16.825 11.7167ZM10.625 8.33334C10.625 8.68334 10.3417 8.96668 9.99166 8.96668C9.64166 8.96668 9.35833 8.68334 9.35833 8.33334V5.75001C9.35833 5.40001 9.64166 5.11668 9.99166 5.11668C10.3417 5.11668 10.625 5.40001 10.625 5.75001V8.33334Z" fill="white"/>
<path d="M12.3583 16.675C12.0083 17.6417 11.0833 18.3333 9.99999 18.3333C9.34166 18.3333 8.69166 18.0667 8.23333 17.5917C7.96666 17.3417 7.76666 17.0083 7.64999 16.6667C7.75833 16.6833 7.86666 16.6917 7.98333 16.7083C8.17499 16.7333 8.37499 16.7583 8.57499 16.775C9.04999 16.8167 9.53333 16.8417 10.0167 16.8417C10.4917 16.8417 10.9667 16.8167 11.4333 16.775C11.6083 16.7583 11.7833 16.75 11.95 16.725C12.0833 16.7083 12.2167 16.6917 12.3583 16.675Z" fill="white"/>
</g>
<circle cx="15" cy="4" r="2.5" fill="#EA4B4B" stroke="white"/>
</svg>
