<svg width="20" height="20" viewBox="0 0 20 20" fill="none" xmlns="http://www.w3.org/2000/svg">
<g opacity="0.4">
<path d="M16.75 7.68333C15.2417 7.68333 14.625 6.61666 15.375 5.30833C15.8083 4.55 15.55 3.58333 14.7917 3.15L13.35 2.325C12.6917 1.93333 11.8417 2.16666 11.45 2.825L11.3583 2.98333C10.6083 4.29166 9.37499 4.29166 8.61666 2.98333L8.52499 2.825C8.14999 2.16666 7.29999 1.93333 6.64166 2.325L5.19999 3.15C4.44166 3.58333 4.18332 4.55833 4.61666 5.31666C5.37499 6.61666 4.75832 7.68333 3.24999 7.68333C2.38332 7.68333 1.66666 8.39166 1.66666 9.26666V10.7333C1.66666 11.6 2.37499 12.3167 3.24999 12.3167C4.75832 12.3167 5.37499 13.3833 4.61666 14.6917C4.18332 15.45 4.44166 16.4167 5.19999 16.85L6.64166 17.675C7.29999 18.0667 8.14999 17.8333 8.54166 17.175L8.63332 17.0167C9.38332 15.7083 10.6167 15.7083 11.375 17.0167L11.4667 17.175C11.8583 17.8333 12.7083 18.0667 13.3667 17.675L14.8083 16.85C15.5667 16.4167 15.825 15.4417 15.3917 14.6917C14.6333 13.3833 15.25 12.3167 16.7583 12.3167C17.625 12.3167 18.3417 11.6083 18.3417 10.7333V9.26666C18.3333 8.4 17.625 7.68333 16.75 7.68333ZM9.99999 12.7083C8.50832 12.7083 7.29166 11.4917 7.29166 10C7.29166 8.50833 8.50832 7.29166 9.99999 7.29166C11.4917 7.29166 12.7083 8.50833 12.7083 10C12.7083 11.4917 11.4917 12.7083 9.99999 12.7083Z" fill="white"/>
</g>
</svg>
